<?xml version="1.0" encoding="UTF-8"?>
<svg id="Layer_2" data-name="Layer 2" xmlns="http://www.w3.org/2000/svg" viewBox="0 0 253.93 70.68">
  <defs>
    <style>
      .cls-1 {
        fill: #e4002b;
        stroke-width: 0px;
      }
    </style>
  </defs>
  <g id="Layer_1-2" data-name="Layer 1">
    <path class="cls-1" d="m103.67.62l-1.14,4.52s-3.5-.44-8.42,3.67l-21.63,17.3-7.59,6.09s3.6,5.61,7.59,11.73c4.4,6.75,9.27,14.11,10.23,15.14,1.83,1.97,4.84,5.3,9.43,5.27l-1.19,4.83c-7.87,0-13.74.23-18.47,0-13.97-.63-17.96-5.12-33.99-30.83,0,0-4.55,16.47-5.65,20.58-1.11,4.15,4.67,5.3,4.67,5.3l-1.22,4.9H0l.08-.33,1.12-4.5c1.84-.13,6.94.48,10.11-11.61.78-2.3-.56,1.87,11.02-40,1.64-6.22-3.09-7.14-4.74-7.56l1.11-4.47,34.7-.02-1.12,4.5s-4.67.51-5.96,4.85l-6.2,22.49s28.84-22.03,29.2-22.35c2.82-2.61-.63-4.81-3.1-4.99l1.12-4.47h5.15s31.19-.05,31.19-.05ZM218.43,0c-3.85-.05-7.55.14-11.08.55-29.06,3.4-46.65,21.72-46.6,40.06.05,15.37,12.46,30.18,41.28,30.06,1.83,0,3.61-.06,5.33-.17,6.97-.36,13.13-1.33,18.74-2.46l3.33-14.31c-5.57,1.86-12.63,3.42-18.27,3.43-1.3,0-2.57-.06-3.8-.19-13.21-1.33-21.83-9.87-21.86-20.76-.03-11.29,8.17-20.16,21.86-22.47,2.3-.38,4.73-.59,7.32-.59,8.83,0,13.31,2.93,16.25,6.78h2.39l4.71-16.9C233.18,1.46,225.99.11,218.43,0m-76.44.66h-34.22l-1.12,4.47s6.83.74,4.73,7.55l-15.53,56.44,31.05.05,1.16-4.85s-5.8-1.4-4.29-6.76c.11-.48,4.56-16.75,4.56-16.75h13.66s.57-.01.57-.01c7.09.03,9.43,3.7,9.43,3.7l4.13-16.75h-23.99l3.57-13.17h6.29s14.54-.01,14.54-.01c3.84,0,6.52,2.55,6.52,4.43h2.36l4.59-18.34h-28.02Zm109.76,8.95c.92-.93,1.4-2.08,1.4-3.41s-.48-2.45-1.39-3.38c-.94-.95-2.08-1.42-3.4-1.42s-2.45.46-3.39,1.42c-.93.93-1.4,2.06-1.4,3.38s.46,2.47,1.39,3.41c.93.96,2.06,1.41,3.39,1.41s2.46-.47,3.39-1.41m.55-7.34c1.09,1.09,1.63,2.4,1.63,3.93s-.54,2.85-1.63,3.95c-1.09,1.1-2.4,1.64-3.95,1.64s-2.85-.55-3.94-1.64c-1.08-1.09-1.62-2.4-1.62-3.95s.54-2.84,1.63-3.93c1.09-1.08,2.4-1.62,3.93-1.61,1.55,0,2.85.53,3.95,1.61m-3.11,3.67c.41-.17.63-.49.63-.95s-.14-.74-.4-.9c-.28-.16-.71-.23-1.32-.22h-.9v2.21h.97c.46,0,.8-.05,1.03-.14m1.6,2.9c0,.17.03.27.06.32l.03.08h-1s-.01-.04-.02-.07c0-.02-.01-.03-.01-.07l-.03-.2v-.49c0-.7-.19-1.17-.57-1.39-.23-.13-.64-.21-1.2-.21h-.84v2.42h-1.09V3.13h2.15c.76,0,1.31.08,1.67.23.63.26.96.78.96,1.55,0,.54-.2.94-.61,1.2-.21.13-.5.23-.88.29.47.07.83.27,1.05.59.21.34.33.65.33.95v.45c0,.14,0,.29.02.44"/>
  </g>
</svg>