<?xml version="1.0" encoding="UTF-8"?>
<svg id="Layer_2" data-name="Layer 2" xmlns="http://www.w3.org/2000/svg" viewBox="0 0 4326.88 1767.01">
  <defs>
    <style>
      .cls-1, .cls-2, .cls-3, .cls-4, .cls-5, .cls-6, .cls-7, .cls-8, .cls-9 {
        stroke-width: 0px;
      }

      .cls-2 {
        fill: #fff;
      }

      .cls-3, .cls-7 {
        fill: #c6102c;
      }

      .cls-3, .cls-9 {
        fill-rule: evenodd;
      }

      .cls-4 {
        fill: #7e6168;
      }

      .cls-5 {
        fill: #f2d8b7;
      }

      .cls-6 {
        fill: #b0001f;
      }

      .cls-8 {
        fill: #fdf3e3;
      }

      .cls-9 {
        fill: #c81f2e;
      }
    </style>
  </defs>
  <g id="Layer_1-2" data-name="Layer 1">
    <g>
      <path class="cls-7" d="m1104.69,92.84c67.87,48.15,118.31,113.91,148.64,197.72,7.52,20.78,9.84,44.69,19.06,68.91,6.6,17.32,19.79,18.1,24.93,35.19,7.39,24.6,4.19,50.41,1.46,71.84-2.76,21.71-15.64,43.58-13.2,65.98,1.75,16,22.37,30.35,29.32,45.45,18.14,39.41,9.79,125.04-7.33,168.61-1.04,2.66-2.29,7.91-4.4,10.26-2.11,2.34-8.44-.97-7.33,5.86,1.63,30.25-16.63,52.73-19.06,80.64-1.68,19.21,6.29,39.36,1.46,58.64-3.71,14.85-27.24,18.13-32.25,33.72-4.92,15.3-1.38,38.42-2.93,58.65-1.17,15.13-8.9,42.91-5.87,58.64,2.66,13.83,24.83,25.76,32.25,33.72,13.17,14.11,18.35,25.23,32.26,32.26,31.84,16.08,82.11,24.4,117.29,39.59,14.2,6.13,23.71,15.97,35.19,19.06,22.28,5.99,49.94,5.03,74.78,7.33,40.26,3.73,81.82,6.79,122.93,10.72l-5.24,36.98-43.32,306.06-14.71,103.89-17.61,124.42L1808,95.95l-703.31-3.11Z"/>
      <path class="cls-7" d="m452.79,1375.54c14.78-9.19,23.62-28.65,38.12-38.12,18.56-12.12,47.61-17.52,60.11-33.72,10.18-13.19,14-46.24,19.06-65.98,2.89-11.27,5.62-23.07,8.79-33.72,3.02-10.13,11.04-23.36,10.26-32.25-.79-9.04-14.9-20.99-21.99-30.79-16.79-23.21-25.49-42.91-36.66-68.91-5.11-11.9-8.45-28.11-14.66-36.65-6.74-9.27-21.63-13.6-30.79-19.06-10.56-6.3-18.65-11.16-26.39-23.46-13.66-21.69-6.12-47-13.2-70.38-5.21-17.23-26.11-35.36-38.12-51.32-25.1-33.34-49.18-70.37-61.58-114.36-5.91-20.95-6.61-37.52-1.47-58.65,1.6-6.59,4.22-11.41,2.93-16.13-2.95-10.8-21.97-19.14-30.79-27.86-9.83-9.72-20.84-22.76-22-36.65-1.08-12.92,6.87-25.82,10.26-39.59,9.21-37.41,16.37-88.74,1.47-126.09-12.63-31.67-49.57-51.65-43.99-89.44,2.1-14.22,18.29-23.23,33.72-35.19,13.64-10.57,25.47-24.1,33.72-33.72,19.36-22.59,47.61-50.46,51.32-85.04,1.87-17.44-13.49-40.64-5.87-54.25,6.64-11.86,46.17-22,61.58-27.86,28.31-10.78,54.73-23.26,80.62-36.11L0,87.95l184.73,1417.61c71.5-37.79,145.69-78.45,222.6-110.97,15.07-6.37,32.6-11.07,45.45-19.06Z"/>
      <path class="cls-7" d="m1116.97,1442.98h-1.47c-1.74,6.14,6.18,2.62,7.33,5.87.48,5.39-1.25,12.98,1.47,16.13,1.14-.33,2.89-.04,2.93-1.47,3.74-4.57-1.98-18.6,7.33-17.6-.58-6.26-12.29-1.4-17.6-2.93Z"/>
      <path class="cls-7" d="m1155.09,1442.98c-3.2,3.64-1.22,12.46-7.33,13.2-.07-5.8-3.23-8.5-4.4-13.2h-4.4c-2.42,3.48-3.5,25.9,2.93,20.53.92-4.46-1.88-12.63,1.47-14.66.39,5.96,2.76,9.95,4.4,14.66,7.37.04,3.74-10.92,8.8-13.2,1.26,4.61-3.43,15.16,4.4,13.2v-20.53h-5.87Z"/>
      <path class="cls-4" d="m841.33,41.31c-2.03-3.35-10.2-.55-14.66-1.47v1.47h14.66Z"/>
      <path class="cls-4" d="m636.07,196.73c4.94-.93,13.62,1.89,16.13-1.47-4.94.93-13.62-1.89-16.13,1.47Z"/>
      <path class="cls-4" d="m666.86,195.26c2.03,3.34,10.2.55,14.66,1.47-2.03-3.34-10.21-.55-14.66-1.47Z"/>
      <path class="cls-4" d="m1240.13,435.72v29.32c2.44-6.39,2.44-22.94,0-29.32Z"/>
      <path class="cls-4" d="m540.76,494.36c-3.36,2.99-.53,12.18-1.47,17.59,3.37-2.99.53-12.18,1.47-17.59Z"/>
      <path class="cls-4" d="m394.14,531.02c.92,4.46-1.88,12.63,1.47,14.66v-14.66h-1.47Z"/>
      <path class="cls-5" d="m1130.17,539.81h23.46c-4.45-2.44-19.01-2.44-23.46,0Z"/>
      <path class="cls-4" d="m1162.42,539.81c2.03,3.34,10.2.55,14.66,1.47-2.03-3.34-10.2-.55-14.66-1.47Z"/>
      <path class="cls-5" d="m443.99,573.53v-14.66c-2.43,1.58-2.43,13.08,0,14.66Z"/>
      <path class="cls-4" d="m1169.75,564.74v14.66c2.43-1.58,2.43-13.08,0-14.66Z"/>
      <path class="cls-8" d="m674.18,586.73c6.39-.95,16.57,1.91,20.53-1.47-6.38.94-16.58-1.91-20.53,1.47Z"/>
      <path class="cls-8" d="m696.18,585.27c2.51,3.35,11.19.54,16.13,1.47-2.51-3.36-11.19-.54-16.13-1.47Z"/>
      <path class="cls-1" d="m1014.34,598.46h14.66c-1.58-2.43-13.08-2.43-14.66,0Z"/>
      <path class="cls-1" d="m1012.87,620.45h17.59c-2.53-2.43-15.07-2.43-17.59,0Z"/>
      <path class="cls-4" d="m1285.58,638.04v24.93c2.44-4.94,2.44-19.99,0-24.93Z"/>
      <path class="cls-1" d="m697.64,704.02c-2.99-3.37-12.18-.53-17.6-1.47,2.99,3.37,12.18.53,17.6,1.47Z"/>
      <path class="cls-1" d="m902.91,866.77h-17.59c2.53,2.43,15.07,2.43,17.59,0Z"/>
      <path class="cls-4" d="m1134.57,928.35c.92,4.46-1.88,12.63,1.47,14.66-.92-4.46,1.88-12.63-1.47-14.66Z"/>
      <path class="cls-1" d="m1027.54,940.08c7.35-.95,18.54,1.92,23.46-1.46-7.35.95-18.54-1.92-23.46,1.46Z"/>
      <path class="cls-1" d="m1008.47,940.08c-4.45.92-12.63-1.88-14.66,1.47,4.46-.92,12.63,1.88,14.66-1.47Z"/>
      <path class="cls-6" d="m1441,1269.97c-15.7-40.69-22.98-88.77-73.31-80.64-1.09,16.09,5.69,31.54,10.26,46.92,13.17,44.27,27.95,89.47,39.58,136.36,15.59,62.82,27.43,127.49,42.52,192.07,16.27,6.7,47.95-2.01,58.65,10.26-10.49,10.52-35.57,6.46-52.78,10.26,14.11,61.15,29.53,121,43.99,181.81h61.12l17.61-124.42c-49.35-120.58-100.89-251.45-147.64-372.61Z"/>
      <path class="cls-4" d="m1265.06,1237.72c-.94-5.42,1.9-14.61-1.47-17.6v17.6h1.47Z"/>
      <path class="cls-5" d="m1263.59,1255.31h1.47v-17.59h-1.47v17.59Z"/>
      <path class="cls-4" d="m1263.59,1274.37c3.37-3.47.52-13.16,1.47-19.06h-1.47v19.06Z"/>
      <path class="cls-1" d="m639,1286.1c-2.43,2.53-2.43,15.07,0,17.6v-17.6Z"/>
      <path class="cls-4" d="m1118.44,1318.36h14.66c-1.58-2.43-13.08-2.43-14.66,0Z"/>
      <path class="cls-6" d="m531.97,1394.6c-31.32,3.87-34.6,47.29-41.05,74.78-22.25,94.76-43.35,195.38-55.71,297.64h71.84c-7.14-133.92,7.96-257.77,24.93-372.41Z"/>
      <path class="cls-1" d="m574.48,1437.12c-3.34,2.03-.55,10.21-1.47,14.66h1.47v-14.66Z"/>
      <path class="cls-1" d="m574.48,1451.78h-1.47v43.99h1.47v-43.99Z"/>
      <path class="cls-1" d="m573.02,1495.77c.95,6.38-1.91,16.57,1.47,20.52v-20.52h-1.47Z"/>
      <path class="cls-6" d="m1353.03,1599.86c11.69,56.24,25.34,110.52,36.66,167.14h61.58c-13.54-57.33-26.1-115.63-38.12-174.48-20.27,2.21-39.5,5.46-60.11,7.33Z"/>
      <path class="cls-6" d="m1237.2,1614.52c9.85,49.77,17.86,101.38,26.39,152.48h68.91c-10.42-53.6-20.52-107.52-32.25-159.82-21.5,1.96-41.27,5.64-63.04,7.33Z"/>
      <path class="cls-6" d="m595.01,1767.01h611.4c-6.76-47.49-13.05-95.46-17.59-145.15-213.34,32.98-417.86,74.78-593.8,145.15Z"/>
      <path class="cls-4" d="m813.47,274.44c-5.5,4.27-10.39,9.16-14.66,14.66,5.5-4.27,10.39-9.16,14.66-14.66Z"/>
      <path class="cls-1" d="m899.98,589.66c-2.53,4.81-7.74,6.93-10.26,11.73,5.5-4.27,10.39-9.16,14.66-14.66-2.09.35-2.47,2.41-4.4,2.93Z"/>
      <path class="cls-1" d="m899.98,589.66c-5.5,4.27-10.39,9.16-14.66,14.66,2.09-.35,2.47-2.41,4.4-2.93,2.53-4.8,7.74-6.92,10.26-11.73Z"/>
      <path class="cls-4" d="m471.85,429.85v1.47c5.99-4.76,11.37-10.14,16.13-16.13h-1.47c-4.27,5.5-9.16,10.39-14.66,14.66Z"/>
      <path class="cls-4" d="m546.63,311.09v1.47c6.97-5.74,13.32-12.09,19.06-19.06h-1.46c-5.25,6.48-11.12,12.34-17.6,17.59Z"/>
      <path class="cls-2" d="m443.99,573.53c-2.43-1.58-2.43-13.08,0-14.66,3.53-48.28,4.46-99.15,27.86-127.56v-1.47c4.27-5.5,9.16-10.39,14.66-14.66h1.47c20.2-33.56,32.17-75.35,58.65-102.63v-1.47c5.25-6.48,11.12-12.34,17.6-17.59h1.46c10.05-11.46,30.13-12.87,35.19-29.33-100.61,2.43-131,95.03-214.06,118.76-9.47,2.71-23.08.88-29.33,10.26,10.56,32.93,41.14,45.85,36.66,93.83,3.41,11.74.5,29.81,1.47,43.99v14.66c1.53,25.08,4.76,105.04,24.93,109.96,9.54,2.33,20.7-9.02,27.86-14.66-.42-23.53-4.17-43.72-4.4-67.45Z"/>
      <path class="cls-8" d="m564.22,293.5c-6.48,5.25-12.34,11.12-17.6,17.59,6.48-5.25,12.34-11.12,17.6-17.59Z"/>
      <path class="cls-8" d="m486.51,415.19c-5.5,4.27-10.39,9.16-14.66,14.66,5.5-4.27,10.39-9.16,14.66-14.66Z"/>
      <path class="cls-5" d="m842.79,750.94c1.6-34.32-7.34-69.65-2.93-104.1-39.92,9.2-19.77,59.72-21.99,102.63-1.22,23.44-10.21,44.49-8.8,61.58,1.88,22.77,27.77,40.18,43.98,46.92-6.5-19.35-17.95-37.81-17.59-61.58.22-14.8,6.6-29.7,7.33-45.45Z"/>
      <path class="cls-1" d="m1029,808.12c5.25,6.48,11.12,12.34,17.59,17.59-5.25-6.48-11.12-12.34-17.59-17.59Z"/>
      <path class="cls-1" d="m1049.53,830.12c6.72,7.94,14.05,15.27,21.99,21.99-6.72-7.95-14.05-15.27-21.99-21.99Z"/>
      <path class="cls-5" d="m885.31,1299.3c4.27,5.5,9.16,10.39,14.66,14.66-4.28-5.5-9.16-10.39-14.66-14.66Z"/>
      <path class="cls-4" d="m1103.78,1201.06c10.38-9.17,20.16-18.94,29.32-29.33-10.39,9.17-20.16,18.94-29.32,29.33Z"/>
      <path class="cls-8" d="m895.58,1095.49c12.42-3.96,33.5-.69,45.45-5.86,10.21,7.3,1.56,27.38,14.66,29.32,22.29,3.31,4.41-36.54,27.86-38.12-11.55,71.57,39.81,93.35,38.12,143.69,13.39,1.87,12.49,10.72,24.92,11.73,22.64,1.85,41.57-25.86,57.18-35.19,9.16-10.39,18.94-20.16,29.32-29.33,38.93-41.72,67.8-93.48,71.84-170.07.96-8.33-1.93-20.5,1.47-26.39v-8.8c-3.4-6.86-.51-20.02-1.47-29.32,2.77-20.45-6.76-36.8-4.4-52.78,1.18-7.99,8.31-14.43,11.73-21.99,3.8-8.42,2.98-17.94,10.26-23.46,5.44,3.85,2.9,15.68,14.66,13.2,9.08-13.58,8.11-29.34,11.73-43.99,11.3-45.7,36.78-89.85,36.65-145.15v-24.93c-1.87-22.75-4.14-47.9-23.46-49.85-12.69-1.28-25.2,9.15-24.92,21.99.19,8.56,12.91,15.46,14.66,26.39,2.8,17.47-5.77,26.26-20.52,32.26-12.33-15.02-4.27-84.76-24.92-89.44-10.33-2.34-42.2,22.91-43.99,29.32-7.37,26.45-2.05,66.57-13.2,96.77-9.66,26.15-24.39,38.61-42.52,49.85-6.17,5.07-15.44,7.04-24.92,8.8-5.77-3.52-12.16-6.42-14.66-13.2,2.11-.82,3.58-2.28,4.4-4.4-1.06-.12-3.05,2.09-2.93,0,.66-11.8,21.79-24.62,19.06-46.92-1.09-8.89-6.62-10.76-8.8-20.53,1.87-3.51,4.78-5.97,10.26-5.86-6.01-5.74-11.32-17.62-21.99-19.06-10.24-1.39-25.47,6.25-39.59,10.26-13.49,3.83-28.22,7.54-42.52,7.33-25.46-.38-36.33-10.69-61.58-11.73-1.81,10.55,9.55,13.68,8.8,23.46-.69,8.98-11.93,18.16-20.53,17.59-28.93-1.9-26.65-77.74-71.84-55.72v1.47c-4.41,34.45,4.53,69.78,2.93,104.1-.73,15.75-7.11,30.65-7.33,45.45-.36,23.77,11.1,42.23,17.59,61.58,7.98,5.7,18.89,8.48,32.26,8.8h17.59c32.76-7.71,90.15-32.61,64.51-70.38-9.57-11.13-1.33-22.61,8.8-27.86,35.5-18.42,69.33,8.86,95.3,32.26,36.15,32.57,105.99,63.8,63.04,120.23v7.33c3.34,2.03.55,10.21,1.47,14.66,5.23,30.44-18.68,49.4-24.93,65.98-9.66,25.63,6.17,64.07-21.99,74.78-12.7-12.71-10.65-40.18-16.13-60.11-26.74-27.04-49.9-4.63-83.57,7.33-24.93,8.85-51.95,12.93-77.71,13.2-4.92,3.39-16.1.51-23.46,1.47-17.35,4.23-39.66,11.07-41.05,26.39,6.19,7.98,20.6,7.75,32.26,10.27,5.37,4.89,7.25,13.27,10.26,20.52-2.06-5.45,3.02-6.43,5.86-7.33Z"/>
      <path class="cls-5" d="m1067.12,750.94c2.51,6.78,8.9,9.67,14.66,13.2,9.48-1.76,18.75-3.73,24.92-8.8-10.64.38-11.85-8.67-11.73-19.06-5.88,5.37-14.34,8.15-23.46,10.26-.82,2.11-2.29,3.58-4.4,4.4Z"/>
      <path class="cls-2" d="m457.19,686.43c-12.89-.18-19.13,6.28-26.39,11.73,1.09,15.86,8.83,31.27,16.13,43.98,6.35,11.07,14.34,29.49,29.32,27.86,3.7-18.7-10.47-39.26-14.66-61.58-1.44-7.66.52-15.22-4.4-21.99Z"/>
      <path class="cls-1" d="m665.39,896.09c5.99-4.76,11.36-10.14,16.13-16.13-5.99,4.76-11.37,10.14-16.13,16.13Z"/>
      <path class="cls-2" d="m744.56,712.82c-9.87,7.23-24.73,9.48-32.26,19.06,14.17,36.68-14.67,59.14-36.66,73.31,23.69-2.76,41-7.95,58.65-19.06,8.06-7.09,15.53-14.78,21.99-23.46,3.74-8.48,7.76-16.68,7.33-29.32-6.94-4.79-13.91-9.55-17.6-17.59-1.14-.32-1.71-1.23-1.47-2.93Z"/>
      <path class="cls-8" d="m653.66,849.18c8.25,11.11,18.12,33.28,33.72,26.39,10.57-6.53,21.08-13.13,32.26-19.06,1.9-18.14,7.27-32.81,14.66-45.45-.21-1.95,4.93-5.45,1.47-5.87-13.83,7.47-61.11,30.01-60.12,0,21.99-14.17,50.83-36.63,36.66-73.31,7.53-9.58,22.39-11.83,32.26-19.06-.24,1.7.32,2.61,1.47,2.93-2.01-12.54,13.01-14.97,8.8-24.93-18.93,4.53-32.06,14.86-57.18,13.2-5.42-.94-14.61,1.9-17.6-1.47-28.46-1.23-47.05,7.86-60.11,23.46-7.49,8.94-8.36,18.63-16.13,20.53-14.88,3.64-21.13-13.2-35.19-13.2-8.39,0-21.38,7.69-21.99,17.59-.3,4.97,7.86,14.16,10.26,17.59,13.76,19.69,28.67,32.59,52.78,39.59,6.81,4.43,17.23,5.26,26.39,7.33,1.7,10.84,8.53,21.52,17.59,33.72Z"/>
      <path class="cls-5" d="m627.26,903.43c15.89,6.79,27.28.2,38.12-7.33,4.76-5.99,10.14-11.37,16.13-16.13,1.95-1.47,5.46-1.39,5.86-4.4-15.6,6.89-25.47-15.28-33.72-26.39-9.06-12.21-15.89-22.88-17.59-33.72-9.17-2.07-19.58-2.89-26.39-7.33,7.42,4.68,3.45,18.59-1.46,23.46-17.2,6.27-26.13-7.94-41.06-8.8,2.43,25.11,34.16,69.54,60.11,80.64Z"/>
      <path class="cls-8" d="m756.29,762.67c-6.47,8.68-13.93,16.37-21.99,23.46,9.27-5.88,16.98-13.32,21.99-23.46Z"/>
      <path class="cls-5" d="m756.29,762.67c-5.01,10.14-12.72,17.58-21.99,23.46-17.64,11.11-34.96,16.3-58.65,19.06-1,30.01,46.29,7.47,60.12,0,3.46.41-1.68,3.92-1.47,5.87,23.75-22.73,52.95-47.66,49.85-92.37-8.67,3.06-11.11,12.35-20.53,14.66.42,12.64-3.59,20.85-7.33,29.32Z"/>
      <path class="cls-4" d="m680.05,1129.22c7.21,8.43,15.03,16.25,23.46,23.46-7.21-8.43-15.03-16.25-23.46-23.46Z"/>
      <path class="cls-5" d="m1144.83,1247.98c-12.53,11.42-24.39,23.5-36.65,35.19,13.61-10.34,25.27-22.62,36.65-35.19Z"/>
      <path class="cls-4" d="m1121.37,1470.84h-1.46c10.63,11.85,21.87,23.09,33.72,33.72v-1.46c-11.36-10.14-22.12-20.9-32.26-32.26Z"/>
      <path class="cls-5" d="m1309.04,1211.32c9.43,23.31,14.15,54.2,19.06,82.11,14.72,83.66,22.79,179.84,24.93,280.04,17.01-2.05,38.25.13,46.92-10.26,4.4-32.93-6.15-67.86-11.73-102.63-11.43-71.21-21.89-137.82-36.65-203.8-6.74-30.14-8.17-72.94-41.05-80.64-4.3,8.41-3.85,21.56-4.4,33.72,2.87-.74,1.64-1.74,2.93,1.46Z"/>
      <path class="cls-2" d="m1328.1,1293.43c-4.91-27.9-9.62-58.8-19.06-82.11-1.29-3.2-.06-2.2-2.93-1.46-10.47,92.13-28.17,183.81-60.11,253.65-4.05,8.86-8.89,23.31-20.53,24.92,16.1-67.96,35.34-132.78,38.12-214.06v-54.25c-3.81-43.59-6.32-88.5-36.65-105.56-18.77,53.08-49.58,94.11-82.11,133.42-11.38,12.56-23.04,24.85-36.65,35.19-8.77,6.44-19.15,15.59-29.33,23.46-8.56,6.62-25.99,15.23-23.46,23.46,17.09-1.98,39-11.82,63.05-11.73,1.58-2.43,13.08-2.43,14.66,0,36,7.01,21.43,64.59,29.33,99.7-5.74,14.79-23.49,17.56-45.45,16.13-6.38,3.4-19.04.51-27.86,1.46-5.99,8.75,23.52,26.1,30.79,35.19h1.46c11.36,10.14,22.12,20.89,32.26,32.26v1.46c3.62,7.83,19.31,16.89,11.73,26.39-23.92,27.35-64.93,1.06-89.44-17.59-19.49-14.84-36.26-33.45-52.78-42.52v1.46c20.57,37.58,33.54,82.78,43.99,130.49,92.11-7.11,190.17-20.95,285.9-29.33-2.14-100.2-10.21-196.38-24.93-280.04Zm-193.53,152.48c-9.31-1-3.6,13.02-7.33,17.6-.04,1.43-1.79,1.14-2.93,1.47-2.72-3.15-.99-10.74-1.47-16.13-1.15-3.25-9.07.28-7.33-5.87h1.47c2.84-2.73,23.42-2.99,17.6,2.93Zm26.39,17.6c-7.83,1.96-3.14-8.59-4.4-13.2-5.05,2.28-1.43,13.23-8.8,13.2-1.64-4.71-4.01-8.7-4.4-14.66-3.34,2.03-.55,10.2-1.47,14.66-6.44,5.37-5.35-17.04-2.93-20.53h4.4c1.17,4.69,4.33,7.4,4.4,13.2,6.11-.73,4.13-9.55,7.33-13.2,9.87-7.84,8.54,15.83,5.87,20.53Z"/>
      <path class="cls-8" d="m1153.63,1503.1c-10.14-11.37-20.89-22.12-32.26-32.26,10.14,11.36,20.89,22.12,32.26,32.26Z"/>
      <path class="cls-1" d="m750.43,1591.06c-10.14-11.36-20.89-22.12-32.26-32.26,10.14,11.36,20.9,22.12,32.26,32.26Z"/>
      <path class="cls-1" d="m899.98,1475.24c-5.5,4.27-10.39,9.16-14.66,14.66,5.5-4.27,10.39-9.16,14.66-14.66Z"/>
      <path class="cls-5" d="m899.98,1475.24c-4.28,5.5-9.16,10.39-14.66,14.66-.99,3.4-4.87,3.92-5.86,7.33,5.41-4.26,12.66-11.55,20.53-8.8-24.64,46.22-41.57,100.17-65.98,146.62,17.07-1.27,31.41-4.57,39.59-14.66,15.21-18.77,23.78-49.14,35.19-77.71,11.53-28.87,25.39-60.51,22-85.04-11.77-1.31-21.92,11.17-30.79,17.59Z"/>
      <path class="cls-5" d="m731.37,1391.66c-20.57,17-1.43,87.31,10.26,105.57,20.2,31.54,74.46,5.25,105.56,2.93,5.36-7.34,10.62-14.8,13.2-24.92-29.97-6.01-84.87,29.15-99.7-5.86-10.16-24-2.24-53.7-8.8-85.04,2.03-2.37,4.15-4.64,5.86-7.33-8.78,10.29-19.51,8.98-26.39,14.66Z"/>
      <path class="cls-5" d="m729.9,1356.48c11.71,6.48,25.81,10.5,30.79,19.06,16.16-11.2,47.32-7.42,63.05-19.06-12.16-12.51-29.88-17.68-45.45-24.92-31.98-14.88-63.26-33.5-89.43-52.78-13.69-10.08-23.6-24.57-39.59-29.32-7.89,7.75-10.73,20.54-10.26,36.65v4.4c30.47,19.71,59.58,48.64,90.9,65.98Z"/>
      <path class="cls-2" d="m879.45,1497.23c-10.38,10.11-20.5,23.48-29.32,36.65-8.47,12.64-13.66,29.89-26.39,35.19.1-24.88,13.95-48.56,23.46-68.91-31.11,2.33-85.36,28.61-105.56-2.93-11.69-18.26-30.83-88.57-10.26-105.57,6.88-5.68,17.61-4.37,26.39-14.66,1.14-.33,2.89-.04,2.93-1.47-4.98-8.56-19.08-12.58-30.79-19.06-31.33-17.34-60.43-46.27-90.9-65.98v13.2c-.15,40.23,10.37,69.81,21.99,101.17,20.42,55.1,43.61,97.54,74.77,137.82,15.89,20.54,35.9,37.96,45.45,61.58.98,16.84-23.26,25.89-35.19,24.92-23.55-1.91-57.37-45.62-70.38-55.71-8.43-7.21-16.25-15.03-23.46-23.46-31.53-34.94-53.97-78.97-76.24-123.16-.23,1.73.25,4.16-1.47,4.4v85.04c.32,33.98,2.55,57.89,7.33,93.84,2.69,20.27,5.99,54.25,17.59,61.58,12.35,7.8,42.7-3.08,57.18-5.86,61.16-11.75,121.65-19.69,177.41-30.79,24.41-46.45,41.34-100.39,65.98-146.62-7.87-2.75-15.12,4.54-20.53,8.8Z"/>
      <path class="cls-8" d="m652.19,1550.01c7.21,8.43,15.03,16.25,23.46,23.46-7.2-8.43-15.03-16.25-23.46-23.46Z"/>
      <path class="cls-5" d="m575.95,1426.85c22.27,44.19,44.71,88.22,76.24,123.16,8.43,7.21,16.25,15.03,23.46,23.46,13.01,10.1,46.83,53.8,70.38,55.71,11.93.97,36.17-8.08,35.19-24.92-12.03,8.34-21.07-9.66-30.79-13.2-11.36-10.14-22.12-20.89-32.26-32.26-31.32-32.61-64.16-83.26-89.44-130.49-6.38-11.92-16.33-44.3-26.39-46.92-23.47-6.11-29.07,28.04-27.86,49.85,1.72-.24,1.24-2.67,1.47-4.4Z"/>
      <path class="cls-2" d="m1116.97,1442.98c5.31,1.54,17.01-3.33,17.6,2.93,5.82-5.92-14.76-5.66-17.6-2.93Z"/>
      <path class="cls-2" d="m1155.09,1442.98h5.87v20.53c2.67-4.7,4-28.37-5.87-20.53Z"/>
      <path class="cls-8" d="m1138.96,328.68c-14.17-34.02-46.93-68.6-90.9-89.44-42.41-20.1-101.84-36.36-148.08-33.72-31.21,1.78-54.33,30.34-74.78,45.45,4.81,11.57-8.29,15.51-11.73,23.46-4.28,5.5-9.16,10.39-14.66,14.66-25.58-.32-38.73-13.08-65.98-11.73h-36.66c-16.33-.2-27.8,4.46-42.52,5.87-.08.89-.22,1.74-1.47,1.47-1.48,17.59-10.01,26.21-16.13,38.12-35.61,69.36-48.31,167.65-46.92,269.78h2.93c27.24-2.08,53.58-5.06,82.1-5.86,3.95-3.38,14.14-.52,20.53-1.47h1.46c4.94.92,13.62-1.89,16.13,1.47,19.56,1.29,34.6,5.57,51.32,13.19,15.26,6.96,29.24,20.53,43.98,20.53,10.49,0,27.83-11.08,46.92-11.73,15.03-.52,25.76,5.42,30.79-4.4,4.27-5.5,9.16-10.39,14.66-14.66,1.93-.52,2.31-2.58,4.4-2.93,53.41-37.49,145.17-36.64,225.79-46.92,4.45-2.44,19.01-2.44,23.46,0h8.8c4.46.92,12.63-1.88,14.66,1.47,11.48-1.44,20.62,3.87,27.86-1.47,2.67-55.95-43.72-79.21-54.25-118.76-3.05-11.44-2.59-28.4-5.87-45.45-2.79-14.56-14.83-41.71-2.93-45.45-.32-1.14-1.23-1.7-2.93-1.46Z"/>
      <path class="cls-8" d="m394.14,487.03v43.99h1.47c-.97-14.18,1.95-32.25-1.47-43.99Z"/>
      <path class="cls-2" d="m1078.85,679.1c2.18,9.76,7.7,11.64,8.8,20.53,2.73,22.3-18.4,35.12-19.06,46.92-.11,2.09,1.88-.12,2.93,0,9.12-2.12,17.58-4.9,23.46-10.26,15.51-12.96,31.94-32.4,27.86-60.12-6.88-5.33-22.42-2.02-33.72-2.93-5.48-.1-8.4,2.35-10.26,5.86Z"/>
      <path class="cls-5" d="m1071.52,800.79c-25.97-23.39-59.8-50.68-95.3-32.26-10.12,5.25-18.36,16.73-8.8,27.86v-7.33c24.17-8.58,46.02,9.38,61.58,19.06,6.48,5.25,12.34,11.12,17.59,17.59.35,2.09,2.41,2.47,2.93,4.4,7.94,6.72,15.27,14.05,21.99,21.99,12.08,17.2,40.94,14.06,52.78,30.79,7.33,10.36,6.02,21.81,10.26,38.12,42.95-56.42-26.89-87.66-63.04-120.23Z"/>
      <path class="cls-5" d="m1204.94,1001.66c3.4-5.89.51-18.06,1.47-26.39-3.4,5.89-.51,18.06-1.47,26.39Z"/>
      <path class="cls-2" d="m1018.74,1227.45c1.94-.02,1.34-2.57,2.93-2.94,1.69-50.34-49.67-72.11-38.12-143.69-23.45,1.58-5.57,41.43-27.86,38.12-13.1-1.94-4.45-22.02-14.66-29.32-11.96,5.18-33.03,1.91-45.45,5.86-2.84.9-7.92,1.88-5.86,7.33.08,10.07,4.55,25.03-1.46,32.26-14.44-6.08-15.21-25.85-33.72-27.86-2.17,14.11,6.09,27.69,7.33,43.99,2.57,33.81-10.51,62.45-7.33,90.9,2.9,25.96,17.27,41.52,30.79,57.18,5.5,4.27,10.39,9.16,14.66,14.66,11.89,11.27,25.37,22.37,39.58,32.25,13.65,9.49,28.55,23.98,48.38,21.99-4.85-61.12,56.03-81.99,30.79-140.75Z"/>
      <path class="cls-1" d="m184.73,1505.56c-.07.04-.15.08-.22.12l5.54,42.2c.06-.03.12-.06.19-.09l-5.5-42.23Z"/>
      <path class="cls-1" d="m655.12,69.17c37.3-13.52,78.25-24.05,123.16-27.86,13.21-3.41,32.74-.5,48.38-1.47,4.46.92,12.63-1.88,14.66,1.47,74.32,6.8,138.36,23.87,192.14,51.21l71.22.32c-53.1-37.67-116.87-64.56-190.05-80.85-49.84-11.1-108.46-15.55-161.28-8.8-94.88,12.12-163.43,51.01-236.07,87.05l85.23.38c16.2-8.62,34.99-15.06,52.61-21.45Z"/>
      <path class="cls-1" d="m1237.2,1614.52c21.77-1.69,41.55-5.37,63.04-7.33,16.63-3.4,35.21-4.87,52.78-7.33,20.62-1.87,39.85-5.12,60.11-7.33,16.77-3.27,35.43-4.64,52.78-7.33,17.21-3.8,42.29.26,52.78-10.26-10.69-12.27-42.37-3.57-58.65-10.26-15.09-64.58-26.93-129.25-42.52-192.07-11.64-46.89-26.42-92.09-39.58-136.36-4.57-15.37-11.36-30.82-10.26-46.92,50.33-8.13,57.61,39.95,73.31,80.64,46.75,121.16,98.28,252.04,147.64,372.61l14.71-103.89c-37.32-82.44-75.09-164.88-112.49-245.27-10.49-22.55-24.15-45.11-26.39-70.38,39.94-5.33,83.33,2.84,126.09,5.86,18.74,1.33,37.51,2.5,56.12,3.72l5.24-36.98c-41.11-3.93-82.67-6.99-122.93-10.72-24.84-2.3-52.5-1.34-74.78-7.33-11.49-3.09-20.99-12.93-35.19-19.06-35.18-15.19-85.46-23.51-117.29-39.59-13.91-7.02-19.09-18.14-32.26-32.26-7.43-7.96-29.59-19.89-32.25-33.72-3.03-15.74,4.7-43.51,5.87-58.64,1.55-20.23-1.99-43.35,2.93-58.65,5.01-15.59,28.54-18.88,32.25-33.72,4.83-19.28-3.14-39.44-1.46-58.64,2.43-27.91,20.69-50.4,19.06-80.64-1.11-6.83,5.23-3.52,7.33-5.86,2.11-2.35,3.35-7.6,4.4-10.26,17.12-43.57,25.47-129.21,7.33-168.61-6.95-15.1-27.57-29.45-29.32-45.45-2.45-22.4,10.44-44.27,13.2-65.98,2.72-21.44,5.92-47.24-1.46-71.84-5.13-17.09-18.33-17.86-24.93-35.19-9.22-24.22-11.54-48.13-19.06-68.91-30.33-83.81-80.76-149.58-148.64-197.72l-71.22-.32c121.51,61.78,190.52,176.04,206.66,343.19,2.44,6.38,2.44,22.93,0,29.32,1.04,8.87-2.31,13.33-7.33,16.13-17.68-23.65-29.17-51.97-43.99-77.71-14.72-25.58-30.82-49.83-46.92-73.31-11.9,3.75.13,30.89,2.93,45.45,3.28,17.05,2.82,34.01,5.87,45.45,10.53,39.55,56.92,62.81,54.25,118.76-7.24,5.34-16.38.02-27.86,1.47-4.46-.92-12.63,1.88-14.66-1.47h-32.25c-80.62,10.28-172.38,9.43-225.79,46.92-4.27,5.5-9.16,10.39-14.66,14.66-1.93.52-2.31,2.58-4.4,2.93-5.03,9.82-15.76,3.88-30.79,4.4-19.09.65-36.43,11.73-46.92,11.73-14.75,0-28.72-13.57-43.98-20.53-16.72-7.62-31.76-11.91-51.32-13.19-4.94-.93-13.62,1.89-16.13-1.47h-1.46c-3.95,3.38-14.14.52-20.53,1.47-28.52.8-54.87,3.78-82.1,5.86-23.57,4.29-45.58,10.14-71.84,11.73-6.04-12.61-9.82-29.08-5.86-41.05,5.15-15.59,35.29-22.98,24.92-51.32.93-5.42-1.9-14.61,1.47-17.59,8.34-98.69,31.9-182.16,111.43-209.66,1.25.27,1.38-.57,1.47-1.47,14.72-1.41,26.19-6.06,42.52-5.87,8.82-2.44,27.84-2.44,36.66,0,27.25-1.35,40.4,11.41,65.98,11.73,4.27-5.5,9.16-10.39,14.66-14.66,3.44-7.96,16.54-11.89,11.73-23.46h-1.46c-37.18-28.31-82.53-48.46-142.22-54.25-4.46-.92-12.63,1.88-14.66-1.47h-14.66c-2.51,3.36-11.19.54-16.13,1.47-28.59,2.39-54,6.68-77.71,13.2-23.81,6.54-44.65,18.9-68.91,19.06-.25-13.96,12.97-24.36,21.99-32.25,19.15-16.75,40.87-35.47,64.51-48.38,11.58-6.33,29.23-7.38,33.72-22-6.75-14.03-30.69,1.15-42.52-4.4,7.55-13.47,20.34-23.34,35.37-31.33l-85.23-.38c-25.89,12.85-52.31,25.33-80.62,36.11-15.41,5.86-54.94,16-61.58,27.86-7.62,13.61,7.73,36.81,5.87,54.25-3.71,34.58-31.95,62.45-51.32,85.04-8.25,9.62-20.08,23.15-33.72,33.72-15.44,11.96-31.62,20.97-33.72,35.19-5.58,37.79,31.36,57.77,43.99,89.44,14.9,37.35,7.74,88.68-1.47,126.09-3.39,13.77-11.34,26.67-10.26,39.59,1.16,13.9,12.17,26.93,22,36.65,8.81,8.72,27.83,17.06,30.79,27.86,1.29,4.71-1.33,9.54-2.93,16.13-5.14,21.12-4.44,37.7,1.47,58.65,12.4,43.99,36.48,81.02,61.58,114.36,12.01,15.96,32.91,34.09,38.12,51.32,7.07,23.37-.46,48.69,13.2,70.38,7.75,12.3,15.83,17.16,26.39,23.46,9.16,5.46,24.05,9.79,30.79,19.06,6.21,8.54,9.55,24.76,14.66,36.65,11.17,26,19.87,45.7,36.66,68.91,7.09,9.8,21.2,21.75,21.99,30.79.78,8.9-7.25,22.12-10.26,32.25-3.17,10.66-5.91,22.46-8.79,33.72-5.06,19.74-8.89,52.79-19.06,65.98-12.5,16.2-41.55,21.6-60.11,33.72-14.5,9.47-23.34,28.93-38.12,38.12-12.85,7.99-30.38,12.69-45.45,19.06-76.91,32.51-151.1,73.18-222.6,110.97l5.5,42.23c31.3-15.04,62.31-30.88,92.48-46.16,27.33-13.84,54.38-33.75,87.97-20.53,10.65,2.82,30.43,2.62,36.65,13.19,9.64,16.39-6.59,48.8-11.73,67.45-18.96,68.86-38.87,143.1-52.78,205.27h92.37c12.37-102.26,33.46-202.88,55.71-297.64,6.46-27.49,9.73-70.91,41.05-74.78-16.97,114.65-32.07,238.49-24.93,372.41h87.97c175.95-70.37,380.46-112.17,593.8-145.15,15.51-3.06,32.56-4.58,48.38-7.33ZM420.54,655.64c-20.17-4.92-23.4-84.88-24.93-109.96-3.34-2.03-.55-10.21-1.47-14.66v-43.99c4.49-47.98-26.09-60.9-36.66-93.83,6.24-9.39,19.85-7.56,29.33-10.26,83.06-23.73,113.45-116.33,214.06-118.76-5.05,16.45-25.14,17.87-35.19,29.33-5.74,6.96-12.1,13.32-19.06,19.06-26.47,27.28-38.44,69.07-58.65,102.63-4.76,5.99-10.14,11.37-16.13,16.13-23.4,28.41-24.33,79.28-27.86,127.56v14.66c.22,23.72,3.98,43.92,4.4,67.45-7.16,5.65-18.32,16.99-27.86,14.66Zm55.71,114.36c-14.98,1.63-22.97-16.79-29.32-27.86-7.3-12.72-15.03-28.13-16.13-43.98,7.26-5.45,13.5-11.91,26.39-11.73,4.92,6.77,2.96,14.33,4.4,21.99,4.19,22.32,18.36,42.89,14.66,61.58Zm0-99.7c-.49-7.33-3.61-12.03-2.93-20.52,10.95-2.24,21.33-5.06,33.72-5.86,3.68,5.12,5.75,11.84,5.86,20.52-11.13,3.04-23.55,4.79-36.66,5.86Zm656.85-104.1c10.07-3.13,24-2.39,35.19-4.4.28,1.19,1.47,1.46,1.47,2.93,2.43,1.58,2.43,13.08,0,14.66-6.43,6.76-21.84,4.54-33.72,5.86-3.58-3.76-3.06-11.6-2.93-19.06Zm-17.59,45.45c-26.98-1.36-44.6-19.9-58.65-29.32,22.7-16.52,78.52-1.36,58.65,29.32Zm-101.17-13.19c1.58-2.43,13.08-2.43,14.66,0,29.4,5.79,41.39,28.98,68.91,36.66-20.95,20.34-46.08-11.71-67.45-14.66h-17.59c-11.98.92-22.32,10.65-33.72,7.33,1.23-14.52,18.2-25.7,35.18-29.32Zm-20.53,343.09c-73.73,3.42-143.78,12.55-205.27,32.26-18.27,5.85-47.16,17.56-57.18-7.33,8.94-8.78,20.99-10.76,32.26-21.99,16.34-16.3,18.75-42.34,51.31-42.52,13.87-.07,25.41,6.59,35.19,8.8,20.18,4.56,41.63,8.58,61.58,0,14.6-6.28,13.42-18.3,24.93-27.85,3.96-3.29,13.93-4.98,20.53-8.8,13.67-7.91,23.11-26.71,35.19-27.86,15.28-1.45,29.04,18.95,38.12,29.32,10.48,11.98,24.31,27.49,35.19,32.26,9.75,4.28,18.94.04,27.86,10.26-1.86,19.15-21.04,20.99-42.52,20.53-4.92,3.39-16.1.51-23.46,1.46h-19.06c-2.03,3.34-10.2.55-14.66,1.47Zm1.47,46.92c-11.41,12.71-37.56,19.78-63.04,24.93-31.69,6.4-71.07,21.21-89.44-5.86,42.75-13.47,97.95-22.26,152.48-19.06Zm-196.47,192.07c-26.41,20.1-76.16-11.41-95.3-27.86-8.43-7.21-16.25-15.03-23.46-23.46-16.77-25.69-53.93-66.81-58.65-108.5-2.39-21.16,1.9-41.4,14.66-52.78,6.2-5.53,23.09-12.65,30.79-8.8,8.39,4.2,11.03,33.39,14.66,46.92,12.64,47.12,26.79,95.96,60.11,120.23,12.97-5.11,6.52-29.65,19.06-35.19,12.72,9.88,15.63,28.53,21.99,43.98,6.03,14.63,18.47,29.28,16.13,45.45Zm1.47-316.7c-38.04,21.04-50.87-71.26-7.33-54.25-6.01,22.59,4.31,36.38,7.33,54.25Zm-95.3-206.73c-29.47.31-51.94,8.62-71.84,20.52-13.11,7.84-27.56,22.59-46.92,14.66,5.99-11.84,23.44-21.08,38.12-32.25,22.94-17.46,66.4-42.65,80.64-2.93Zm-173.01,26.39c-1.06-26.62,18.56-35.27,42.52-41.06,8.58-2.07,21.25-7.66,24.92,1.47-2.44,9.3-16.6,15.28-27.86,24.92-12.17,10.43-26.07,30.53-39.58,14.66Zm35.18,139.29c14.92.85,23.85,15.06,41.06,8.8,4.92-4.87,8.89-18.78,1.46-23.46-24.11-7-39.02-19.9-52.78-39.59-2.4-3.44-10.57-12.63-10.26-17.59.61-9.9,13.6-17.59,21.99-17.59,14.05,0,20.31,16.83,35.19,13.2,7.77-1.9,8.64-11.59,16.13-20.53,13.06-15.59,31.66-24.69,60.11-23.46,5.42.94,14.61-1.9,17.6,1.47,25.12,1.66,38.25-8.66,57.18-13.2,4.22,9.96-10.81,12.38-8.8,24.93,3.69,8.04,10.66,12.8,17.6,17.59,9.41-2.31,11.86-11.6,20.53-14.66,3.09,44.71-26.1,69.65-49.85,92.37-7.4,12.64-12.76,27.31-14.66,45.45-11.17,5.93-21.69,12.52-32.26,19.06-.41,3.01-3.92,2.93-5.86,4.4-4.76,5.99-10.14,11.37-16.13,16.13-10.85,7.53-22.24,14.12-38.12,7.33-25.95-11.09-57.68-55.53-60.11-80.64Zm341.62,719.89c-11.41,28.57-19.97,58.94-35.19,77.71-8.18,10.09-22.51,13.39-39.59,14.66-55.76,11.1-116.25,19.04-177.41,30.79-14.48,2.78-44.83,13.67-57.18,5.86-11.61-7.33-14.9-41.31-17.59-61.58-4.78-35.95-7.01-59.86-7.33-93.84-3.38-3.95-.52-14.14-1.47-20.52v-43.99c.92-4.46-1.88-12.63,1.47-14.66v-5.87c-1.21-21.82,4.39-55.96,27.86-49.85,10.06,2.62,20.01,35,26.39,46.92,25.28,47.23,58.12,97.88,89.44,130.49,11.36,10.14,22.12,20.89,32.26,32.26,9.72,3.54,18.76,21.54,30.79,13.2-9.55-23.62-29.57-41.04-45.45-61.58-31.17-40.28-54.36-82.72-74.77-137.82-11.62-31.35-22.14-60.93-21.99-101.17-2.43-2.53-2.43-15.07,0-17.6-.47-16.11,2.37-28.91,10.26-36.65,15.99,4.75,25.9,19.24,39.59,29.32,26.17,19.28,57.46,37.91,89.43,52.78,15.58,7.25,33.29,12.42,45.45,24.92-15.73,11.64-46.88,7.86-63.05,19.06-.04,1.43-1.79,1.14-2.93,1.47-1.71,2.69-3.83,4.96-5.86,7.33,6.55,31.34-1.36,61.04,8.8,85.04,14.83,35.01,69.73-.15,99.7,5.86-2.58,10.13-7.83,17.58-13.2,24.92-9.51,20.35-23.35,44.03-23.46,68.91,12.73-5.3,17.92-22.55,26.39-35.19,8.82-13.17,18.94-26.54,29.32-36.65.99-3.41,4.87-3.93,5.86-7.33,4.27-5.5,9.16-10.39,14.66-14.66,8.87-6.43,19.02-18.91,30.79-17.59,3.39,24.53-10.46,56.17-22,85.04Zm74.78,68.91c-8.28,5.1-25.69,8.28-36.65,5.86,9.08-18.77,17.73-37.98,24.92-58.65,8.23,12.52,12.93,35.64,11.73,52.78Zm-43.99-265.38c-14.22-9.88-27.69-20.99-39.58-32.25-5.5-4.28-10.39-9.16-14.66-14.66-13.52-15.66-27.89-31.22-30.79-57.18-3.18-28.45,9.9-57.09,7.33-90.9-1.24-16.3-9.5-29.87-7.33-43.99,18.52,2.01,19.28,21.77,33.72,27.86,6.01-7.23,1.54-22.18,1.46-32.26-3.01-7.25-4.89-15.64-10.26-20.52-11.66-2.52-26.06-2.29-32.26-10.27,1.4-15.32,23.71-22.16,41.05-26.39,4.92-3.39,16.1-.52,23.46-1.47,25.76-.27,52.78-4.34,77.71-13.2,33.67-11.96,56.83-34.37,83.57-7.33,5.48,19.93,3.43,47.4,16.13,60.11,28.17-10.7,12.33-49.14,21.99-74.78,6.25-16.58,30.16-35.54,24.93-65.98-3.34-2.03-.54-10.21-1.47-14.66v-7.33c-4.24-16.31-2.93-27.76-10.26-38.12-11.84-16.73-40.7-13.6-52.78-30.79-7.95-6.72-15.27-14.05-21.99-21.99-.52-1.93-2.58-2.31-2.93-4.4-6.48-5.25-12.34-11.12-17.59-17.59-15.56-9.68-37.41-27.65-61.58-19.06v7.33c25.63,37.77-31.75,62.67-64.51,70.38-2.53,2.43-15.06,2.43-17.59,0-13.36-.32-24.27-3.1-32.26-8.8-16.22-6.74-42.1-24.15-43.98-46.92-1.42-17.09,7.58-38.14,8.8-61.58,2.22-42.92-17.93-93.43,21.99-102.63v-1.47c45.19-22.02,42.91,53.82,71.84,55.72,8.6.56,19.84-8.61,20.53-17.59.75-9.78-10.61-12.91-8.8-23.46,25.25,1.04,36.12,11.35,61.58,11.73,14.3.21,29.03-3.5,42.52-7.33,14.12-4.01,29.35-11.65,39.59-10.26,10.67,1.44,15.98,13.32,21.99,19.06,11.3.91,26.84-2.4,33.72,2.93,4.08,27.72-12.34,47.15-27.86,60.12-.13,10.39,1.09,19.44,11.73,19.06,18.13-11.24,32.86-23.7,42.52-49.85,11.15-30.2,5.82-70.32,13.2-96.77,1.79-6.41,33.66-31.66,43.99-29.32,20.66,4.67,12.6,74.41,24.92,89.44,14.75-5.99,23.32-14.78,20.52-32.26-1.75-10.93-14.47-17.84-14.66-26.39-.28-12.84,12.24-23.27,24.92-21.99,19.32,1.95,21.59,27.1,23.46,49.85,2.44,4.94,2.44,19.99,0,24.93.13,55.3-25.36,99.45-36.65,145.15-3.62,14.65-2.65,30.41-11.73,43.99-11.77,2.48-9.23-9.35-14.66-13.2-7.28,5.52-6.46,15.04-10.26,23.46-3.42,7.56-10.55,14-11.73,21.99-2.36,15.98,7.17,32.33,4.4,52.78,3.4,6.86.5,20.02,1.47,29.32v8.8c-.96,8.33,1.93,20.5-1.47,26.39-4.04,76.59-32.92,128.36-71.84,170.07-9.16,10.39-18.94,20.16-29.32,29.33-15.61,9.33-34.54,37.03-57.18,35.19-12.44-1.01-11.54-9.86-24.92-11.73-1.59.36-1,2.92-2.93,2.94,25.24,58.76-35.64,79.63-30.79,140.75-19.83,1.98-34.73-12.5-48.38-21.99Zm83.58,126.09c-5.34-8.84-12.96-15.39-14.66-27.86,32.47,2.65,57.31,22.9,82.11,38.12,25.48,15.64,49.49,33.39,74.77,48.38,7.58-9.5-8.11-18.56-11.73-26.39-11.85-10.63-23.09-21.87-33.72-33.72-7.27-9.09-36.79-26.44-30.79-35.19,6.38-3.4,19.04-.51,27.86-1.46,21.96,1.44,39.71-1.34,45.45-16.13-7.9-35.11,6.68-92.69-29.33-99.7h-14.66c-24.04-.09-45.95,9.75-63.05,11.73-2.53-8.23,14.9-16.84,23.46-23.46,10.17-7.87,20.56-17.02,29.33-23.46,12.26-11.68,24.12-23.77,36.65-35.19,32.53-39.31,63.35-80.35,82.11-133.42,30.34,17.07,32.84,61.97,36.65,105.56,3.37,2.99.53,12.18,1.47,17.6v17.59c-.94,5.9,1.9,15.59-1.47,19.06-2.78,81.28-22.02,146.1-38.12,214.06,11.64-1.61,16.48-16.06,20.53-24.92,31.94-69.84,49.64-161.52,60.11-253.65.55-12.16.1-25.32,4.4-33.72,32.89,7.7,34.31,50.5,41.05,80.64,14.76,65.98,25.22,132.59,36.65,203.8,5.58,34.78,16.12,69.7,11.73,102.63-8.67,10.39-29.91,8.21-46.92,10.26-95.74,8.37-193.79,22.21-285.9,29.33-10.45-47.71-23.41-92.91-43.99-130.49Z"/>
      <path class="cls-5" d="m1075.92,1513.36c24.51,18.65,65.52,44.94,89.44,17.59-25.29-14.99-49.29-32.74-74.77-48.38-24.79-15.22-49.64-35.47-82.11-38.12,1.71,12.46,9.33,19.02,14.66,27.86v-1.46c16.52,9.07,33.29,27.68,52.78,42.52Z"/>
      <path class="cls-5" d="m407.34,1494.3c-6.22-10.57-26-10.38-36.65-13.19-34.84,90.93-45.86,183.07-71.85,285.91h43.99c13.91-62.17,33.82-136.41,52.78-205.27,5.14-18.65,21.37-51.06,11.73-67.45Z"/>
      <path class="cls-2" d="m1169.75,579.4v-14.66c0-1.47-1.19-1.75-1.47-2.93-11.19,2.01-25.12,1.27-35.19,4.4-.12,7.46-.64,15.3,2.93,19.06,11.88-1.32,27.29.9,33.72-5.86Z"/>
      <path class="cls-2" d="m473.32,649.78c-.68,8.5,2.44,13.2,2.93,20.52,13.1-1.07,25.53-2.82,36.66-5.86-.11-8.68-2.19-15.41-5.86-20.52-12.39.81-22.77,3.62-33.72,5.86Z"/>
      <path class="cls-2" d="m1008.47,940.08h19.06c4.92-3.39,16.1-.51,23.46-1.46,21.48.46,40.66-1.38,42.52-20.53-8.92-10.23-18.1-5.98-27.86-10.26-10.88-4.77-24.71-20.27-35.19-32.26-9.08-10.37-22.84-30.77-38.12-29.32-12.08,1.15-21.52,19.94-35.19,27.86-6.59,3.82-16.56,5.51-20.53,8.8-11.51,9.55-10.33,21.57-24.93,27.85-19.95,8.58-41.4,4.56-61.58,0-9.79-2.21-21.33-8.87-35.19-8.8-32.56.18-34.97,26.22-51.31,42.52-11.27,11.23-23.31,13.21-32.26,21.99,10.01,24.9,38.9,13.19,57.18,7.33,61.49-19.7,131.54-28.84,205.27-32.26,2.04-3.34,10.21-.55,14.66-1.47Z"/>
      <path class="cls-2" d="m842.79,1007.53c18.37,27.08,57.75,12.27,89.44,5.86,25.49-5.15,51.63-12.21,63.04-24.93-54.53-3.2-109.74,5.59-152.48,19.06Z"/>
      <path class="cls-2" d="m1464.46,1223.05c2.24,25.27,15.9,47.83,26.39,70.38,37.4,80.39,75.17,162.83,112.49,245.27l43.32-306.06c-18.61-1.22-37.37-2.39-56.12-3.72-42.76-3.03-86.15-11.2-126.09-5.86Z"/>
      <path class="cls-2" d="m190.05,1547.88l28.75,219.13-28.57-219.22c-.06.03-.12.06-.19.09Z"/>
      <path class="cls-2" d="m282.71,1501.63c-30.17,15.28-61.18,31.12-92.48,46.16l28.57,219.22h80.04c25.98-102.83,37.01-194.97,71.85-285.91-33.59-13.22-60.65,6.68-87.97,20.53Z"/>
      <path class="cls-2" d="m946.9,1617.46c10.96,2.41,28.38-.77,36.65-5.86,1.2-17.15-3.5-40.26-11.73-52.78-7.2,20.66-15.84,39.88-24.92,58.65Z"/>
      <path class="cls-2" d="m1413.14,1592.53c12.02,58.84,24.58,117.14,38.12,174.48h58.65c-14.45-60.81-29.87-120.66-43.99-181.81-17.35,2.69-36.01,4.06-52.78,7.33Z"/>
      <path class="cls-2" d="m1300.24,1607.19c11.73,52.29,21.83,106.21,32.25,159.82h57.18c-11.31-56.62-24.97-110.9-36.66-167.14-17.58,2.46-36.15,3.93-52.78,7.33Z"/>
      <path class="cls-2" d="m1188.82,1621.86c4.55,49.7,10.83,97.66,17.59,145.15h57.18c-8.53-51.1-16.54-102.71-26.39-152.48-15.82,2.75-32.87,4.27-48.38,7.33Z"/>
      <path class="cls-8" d="m826.67,39.84c-15.64.97-35.18-1.94-48.38,1.47h48.38v-1.47Z"/>
      <path class="cls-4" d="m696.18,277.36h36.66c-8.82-2.44-27.84-2.44-36.66,0Z"/>
      <path class="cls-5" d="m636.07,322.82c6.12-11.91,14.64-20.52,16.13-38.12-79.53,27.5-103.09,110.97-111.43,209.66-.93,5.42,1.9,14.61-1.47,17.59,10.36,28.33-19.78,35.73-24.92,51.32-3.96,11.97-.18,28.44,5.86,41.05,26.27-1.59,48.27-7.44,71.84-11.73h-2.93c-1.39-102.13,11.31-200.42,46.92-269.78Z"/>
      <path class="cls-5" d="m1056.86,582.33c14.05,9.42,31.66,27.96,58.65,29.32,19.87-30.68-35.94-45.84-58.65-29.32Z"/>
      <path class="cls-5" d="m1012.87,620.45c2.53-2.43,15.07-2.43,17.59,0,21.37,2.95,46.49,35.01,67.45,14.66-27.52-7.67-39.52-30.87-68.91-36.66h-14.66c-16.98,3.62-33.96,14.8-35.18,29.32,11.4,3.32,21.74-6.42,33.72-7.33Z"/>
      <path class="cls-5" d="m586.22,692.29c19.36,7.93,33.81-6.82,46.92-14.66,19.9-11.9,42.37-20.22,71.84-20.52-14.24-39.72-57.7-14.53-80.64,2.93-14.68,11.17-32.13,20.42-38.12,32.25Z"/>
      <path class="cls-5" d="m599.41,643.91c-3.67-9.13-16.35-3.54-24.92-1.47-23.96,5.79-43.58,14.43-42.52,41.06,13.51,15.86,27.41-4.23,39.58-14.66,11.25-9.65,25.42-15.62,27.86-24.92Z"/>
      <path class="cls-5" d="m800.28,863.84c-3.02-17.87-13.34-31.66-7.33-54.25-43.54-17.01-30.71,75.29,7.33,54.25Z"/>
      <path class="cls-5" d="m1206.41,966.47c-.96-9.3,1.93-22.46-1.47-29.32.96,9.3-1.93,22.46,1.47,29.32Z"/>
      <path class="cls-5" d="m760.69,1091.1c-12.54,5.54-6.09,30.08-19.06,35.19-33.33-24.26-47.47-73.11-60.11-120.23-3.63-13.53-6.27-42.72-14.66-46.92-7.7-3.85-24.59,3.27-30.79,8.8-12.77,11.38-17.06,31.62-14.66,52.78,4.72,41.69,41.87,82.81,58.65,108.5,8.43,7.21,16.25,15.03,23.46,23.46,19.15,16.45,68.89,47.95,95.3,27.86,2.34-16.17-10.1-30.83-16.13-45.45-6.37-15.45-9.28-34.1-21.99-43.98Z"/>
      <path class="cls-8" d="m911.71,1044.18c-7.35.95-18.54-1.92-23.46,1.47,7.35-.95,18.54,1.92,23.46-1.47Z"/>
      <path class="cls-5" d="m1116.97,1434.18c-8.81.96-21.48-1.93-27.86,1.46,8.82-.96,21.48,1.93,27.86-1.46Z"/>
      <path class="cls-9" d="m1974.31,593.09c10.51-8.99,37.6-1.39,54.58-3.9v3.9h-54.58Z"/>
      <g>
        <path class="cls-3" d="m2874.82,593.09c144.24-9.1,305.37-1.3,456.1-3.9v3.9h-456.1Z"/>
        <path class="cls-3" d="m3151.6,733.43c66.28-6.49,159.82-6.49,226.1,0h-226.1Z"/>
        <path class="cls-3" d="m3650.58,967.32c-6.46-6.72-6.46-40.06,0-46.78v46.78Z"/>
        <path class="cls-3" d="m3880.58,1154.44h42.88c-5.46,6.46-37.42,6.46-42.88,0Z"/>
        <path class="cls-3" d="m2621.43,1275.29c16.96-9.03,50.63-1.35,74.07-3.9-16.96,9.03-50.63,1.35-74.07,3.9Z"/>
        <path class="cls-3" d="m2523.97,1275.29h93.56c-22.16,6.49-71.4,6.49-93.56,0Z"/>
        <path class="cls-3" d="m2484.99,589.19h171.52c56.91,0,127.32-13.67,167.63,0,1.95.66-1.91,10.03-3.9,7.8-102.66-11.69-232.59,3.89-335.25-7.8Z"/>
        <path class="cls-3" d="m2317.37,604.78c-.48-.58.6-3.5,0-3.9-60.02-40.31-207.88,13.81-288.47-7.8v-3.9h292.37v15.59h-3.9Z"/>
        <path class="cls-3" d="m3490.75,604.78c-.48-.58.6-3.5,0-3.9-31.55-21.19-112.46-.38-159.83-7.8v-3.9h163.73v15.59h-3.9Z"/>
        <path class="cls-3" d="m3490.75,604.78c-11.69,59.78-25.98,116.96-42.88,171.53-40.71,3.03-33.08-42.29-70.17-42.88-66.28-6.49-159.82-6.49-226.1,0-6.76,46.52-24.43,82.12-31.19,128.64,70.18,9.09,157.23,1.31,233.9,3.9-6.98,57.99-26.96,102.99-35.09,159.83-19.56-1.93-43.27-31.6-77.97-31.19-44.32-4.01-125.87-11.54-163.73,3.9-4.67,73.34-89.29,191.89,0,230-4.23,13.96-6.08,30.3-11.69,42.88-95.54-4.99-233.05,10.07-307.97-7.8,32.42-130.02,79.23-292.96,120.85-444.41,17.82-64.84,67.65-167.52-15.59-183.22-1.25-18.14,7.77-26.01,7.8-42.88h460c47.37,7.42,128.27-13.39,159.83,7.8.6.4-.48,3.32,0,3.9Z"/>
        <path class="cls-3" d="m3120.41,862.07c74.14,2.54,179.23-5.12,233.9,3.9-76.67-2.59-163.72,5.19-233.9-3.9Z"/>
        <path class="cls-3" d="m3077.53,998.51c37.86-15.43,119.41-7.91,163.73-3.9-53.4,2.47-116.78-5.03-163.73,3.9Z"/>
        <path class="cls-3" d="m3884.48,589.19h152.03c54.04-.76,91.63,14.91,136.44,23.39-15.18,60.19-29.24,121.5-50.68,175.42-38.28-5.05-53.61-41.12-85.76-54.58-150.64-63.07-377.22,33.93-385.93,187.12-6.46,6.72-6.46,40.06,0,46.78,20.86,118.18,106.04,172.04,230,187.12,5.46,6.46,37.42,6.46,42.88,0,57.92-8.35,114.16-18.38,163.73-35.09-10.42,50.65-20.61,101.53-35.09,148.13-57.16,5.22-103.95,20.79-167.63,19.49h-140.34c-189.15-16.67-363.42-112.68-343.05-331.36,20.45-219.44,256.97-346.11,483.39-366.44Z"/>
        <path class="cls-3" d="m1974.31,593.09h54.58c80.59,21.6,228.46-32.51,288.47,7.8.6.4-.48,3.32,0,3.9,2.76,14.46-6.66,16.73-3.9,31.19-98.22,29.13-77.87,176.82-120.85,261.18,95.38-64.45,208.66-144.78,296.27-230-3.44-21.25-25.6-23.78-42.88-31.19,5.2-14.29,9.22-29.77,11.69-46.78h27.29c102.66,11.69,232.59-3.89,335.25,7.8,1.25,18.14-7.77,26.01-7.79,42.88-86.94,14.81-148.85,87.03-210.51,136.44-56.47,45.25-109.71,87.38-163.73,128.64,50.93,74.53,109.16,182.31,167.63,257.29,23.02,29.52,49.58,59.5,101.36,62.37-1.38,18.11-5.01,33.98-11.69,46.78-23.44,2.55-57.11-5.13-74.07,3.9h-97.46c-217.04,1.33-254.71-176.7-346.95-300.17-8.99,63.74-114.17,228.53-11.69,249.49-5.2,14.29-9.22,29.77-11.69,46.78-119.55-2.59-249.49,5.19-362.54-3.9-1.63-18.52,5.67-28.12,7.8-42.88,16.52.93,27.6-3.58,38.98-7.79,77.8-76.69,104.58-271.73,144.24-413.22,18.74-66.87,67.02-151.67-19.49-163.73,2.48-17.01,6.49-32.49,11.69-46.78Z"/>
        <path class="cls-3" d="m3884.48,589.19c41.61-6.49,110.42-6.49,152.03,0h-152.03Z"/>
        <path class="cls-3" d="m2757.87,1263.6c74.91,17.87,212.42,2.81,307.97,7.8-70.33-6.79-231.37,22-304.07,3.9-10.42-2.6-12.25-7.15-3.9-11.7Z"/>
        <path class="cls-3" d="m1791.09,1267.49c113.05,9.09,242.99,1.3,362.54,3.9-54.59,9.08-126.04,1.31-187.12,3.9-53.38-6.78-146.44,12.54-179.32-7.8.94.58,2.88-.46,3.9,0Z"/>
        <path class="cls-3" d="m3744.14,1286.98h140.34c-37.71,6.49-102.62,6.49-140.34,0Z"/>
        <path class="cls-7" d="m4326.88,690.49c0,12.23-3.06,23.62-9.17,34.18-6.12,10.56-14.45,18.88-25.01,24.97-10.56,6.09-21.96,9.13-34.18,9.13s-23.54-3.04-34.09-9.13c-10.56-6.09-18.9-14.41-25.01-24.97-6.12-10.56-9.17-21.95-9.17-34.18s3.06-23.55,9.17-34.14c6.11-10.59,14.45-18.93,25.01-25.01,10.56-6.08,21.92-9.13,34.09-9.13s23.62,3.04,34.18,9.13c10.56,6.08,18.9,14.42,25.01,25.01,6.11,10.59,9.17,21.97,9.17,34.14Zm-13.24,0c0-15.21-5.38-28.2-16.15-38.97-10.77-10.77-23.76-16.15-38.97-16.15s-28.2,5.38-38.97,16.15c-10.77,10.77-16.15,23.76-16.15,38.97s5.38,28.2,16.15,38.97c10.77,10.77,23.76,16.15,38.97,16.15s28.2-5.38,38.97-16.15c10.77-10.77,16.15-23.76,16.15-38.97Zm-86.08-36.51h32.66c9.25,0,15.94,1.87,20.09,5.59,4.15,3.73,6.22,8.72,6.22,14.99,0,4.89-1.58,9.13-4.74,12.71-3.16,3.58-8.14,6.17-14.94,7.79,2.8,1.07,4.86,2.21,6.17,3.4,1.85,1.67,3.79,4.15,5.82,7.43.12.24,4.06,7.28,11.81,21.12h-21.48c-6.98-13.9-11.66-22.21-14.05-24.92-2.39-2.71-4.77-4.07-7.16-4.07-.54,0-1.28.09-2.24.27v28.72h-18.17v-73.02Zm18.17,30.96h7.88c5.25,0,8.95-.85,11.1-2.55,2.15-1.7,3.22-3.89,3.22-6.58s-1.03-4.88-3.09-6.58c-2.06-1.7-5.56-2.55-10.51-2.55h-8.59v18.26Z"/>
      </g>
    </g>
  </g>
</svg>