<?xml version="1.0" encoding="UTF-8"?>
<!DOCTYPE svg PUBLIC "-//W3C//DTD SVG 1.1//EN" "http://www.w3.org/Graphics/SVG/1.1/DTD/svg11.dtd">
<!-- Creator: CorelDRAW X7 -->
<svg xmlns="http://www.w3.org/2000/svg" xml:space="preserve" width="2379px" height="2398px" version="1.1" style="shape-rendering:geometricPrecision; text-rendering:geometricPrecision; image-rendering:optimizeQuality; fill-rule:evenodd; clip-rule:evenodd"
viewBox="0 0 2484 2504"
 xmlns:xlink="http://www.w3.org/1999/xlink">
 <defs>
  <style type="text/css">
   <![CDATA[
    .fil0 {fill:black}
    .fil1 {fill:#A3080C}
    .fil4 {fill:#F5D4B7}
    .fil2 {fill:#FEF0E1}
    .fil3 {fill:#FFFEFE}
   ]]>
  </style>
 </defs>
 <g id="Layer_x0020_1">
  <metadata id="CorelCorpID_0Corel-Layer"/>
  <g id="_2635708474016">
   <path class="fil0" d="M280 477c5,40 33,62 49,90 30,52 19,120 6,178 -5,26 -33,51 17,97 11,10 28,21 38,31 7,16 -54,76 83,255 26,34 43,38 46,74 5,49 -3,83 63,113 40,18 28,45 66,110 24,41 36,50 49,71 8,13 -2,28 -6,43 -56,176 0,111 -116,180 -28,17 -27,40 -65,55 -138,54 -192,84 -316,155 6,7 8,13 14,21 3,6 11,18 16,21 27,-10 61,-31 89,-45 43,-20 49,-33 105,-25 28,9 58,3 51,45 -4,21 -15,55 -21,77 -15,52 -30,106 -42,156 5,11 90,77 98,82 13,-101 55,-328 86,-433 7,-22 13,-34 37,-39l-23 182c-8,82 -17,211 -9,294 5,47 24,36 58,23 49,-19 101,-37 152,-54 123,-41 190,-59 319,-88 113,-24 230,-47 346,-63l63 -9 81 -10 66 -9 78 -10 67 -8c16,-5 56,-1 68,-14 -14,-18 -55,-3 -73,-13 -11,-7 -14,-53 -18,-69 -9,-48 -19,-95 -31,-143 -11,-45 -22,-92 -35,-135 -7,-21 -42,-122 -36,-134 14,-9 38,2 48,9 15,11 17,23 24,41 62,150 119,306 182,459 12,30 25,60 37,91 6,15 12,30 19,46l20 45c7,-6 9,-6 15,-11 6,-6 8,-8 15,-13 3,-3 26,-25 28,-27l-202 -446c-11,-22 -67,-135 -62,-152 25,-8 278,15 323,20 46,4 109,11 149,25 22,7 41,16 61,26 10,5 17,9 27,15 9,6 18,14 26,18l2 -3c0,0 2,-5 2,-5l11 -33c-48,-25 -71,-47 -138,-61 -151,-33 -285,-41 -438,-56 -77,-7 -37,-6 -73,-24 -42,-21 -101,-34 -148,-50 -34,-11 -35,-25 -54,-46 -9,-10 -17,-16 -26,-23 -31,-26 -10,-37 -6,-120 2,-65 -5,-52 25,-74 40,-29 -7,-49 33,-158 33,-87 79,-242 8,-311 -37,-36 10,-62 6,-165 -2,-63 -19,-53 -30,-70 -8,-13 -17,-55 -22,-74 -49,-168 -174,-291 -337,-353 -14,-5 -65,-20 -72,-24 -24,-4 -46,-11 -73,-15 -12,-2 -23,-4 -37,-5 -11,0 -30,-1 -42,-3 -109,-15 -278,49 -373,102 -58,32 -79,48 -148,71 -108,36 -29,43 -47,104 -16,52 -70,113 -114,147 -19,14 -36,20 -39,51z"/>
   <path class="fil1" d="M1153 25c7,4 58,19 72,24 163,62 288,185 337,353 5,19 14,61 22,74 11,17 28,7 30,70 4,103 -43,129 -6,165 71,69 25,224 -8,311 -40,109 7,129 -33,158 -30,22 -23,9 -25,74 -4,83 -25,94 6,120 9,7 17,13 26,23 19,21 20,35 54,46 47,16 106,29 148,50 36,18 -4,17 73,24 153,15 287,23 438,56 67,14 90,36 138,61 14,-34 31,-112 37,-150 14,-80 12,-96 20,-169 9,-83 -13,-259 -34,-340 -20,-83 -37,-136 -70,-210 -9,-22 -19,-45 -30,-65 -5,-10 -10,-17 -16,-29l-34 -59c-7,-11 -12,-18 -19,-29 -6,-12 -11,-18 -19,-28 -47,-68 -65,-84 -114,-142 -4,-5 -7,-8 -12,-12l-48 -47c-10,-7 -14,-15 -24,-23 -64,-49 -68,-61 -161,-119 -45,-28 -74,-44 -121,-68 -105,-52 -241,-93 -360,-109 -101,-14 -126,-12 -223,-12 -18,0 -30,2 -44,2z"/>
   <path class="fil1" d="M194 1929c124,-71 178,-101 316,-155 38,-15 37,-38 65,-55 116,-69 60,-4 116,-180 4,-15 14,-30 6,-43 -13,-21 -25,-30 -49,-71 -38,-65 -26,-92 -66,-110 -66,-30 -58,-64 -63,-113 -3,-36 -20,-40 -46,-74 -137,-179 -76,-239 -83,-255 -10,-10 -27,-21 -38,-31 -50,-46 -22,-71 -17,-97 13,-58 24,-126 -6,-178 -16,-28 -44,-50 -49,-90 -4,6 -8,10 -13,16 -5,7 -7,11 -13,17 -23,29 -53,76 -73,107l-43 77c-32,64 -50,101 -72,168 -31,93 -43,147 -56,244 -14,105 -13,240 4,341 9,58 16,91 31,149l29 90c12,31 23,58 36,86 11,26 25,57 39,80l45 77z"/>
   <path class="fil2" d="M1003 323c6,15 -6,20 -13,27 -7,8 -12,16 -22,23 -8,3 -115,-34 -186,-5 -4,23 -10,25 -20,42 -38,68 -51,161 -59,238 -2,15 -4,105 -1,113 15,3 88,-6 110,-7 63,-3 93,4 143,34 41,25 35,-7 98,-4 24,0 29,-4 41,-18 37,-41 109,-50 177,-59 35,-4 70,-8 105,-11 30,-2 95,4 113,-1 2,-18 -9,-55 -16,-70 -11,-21 -25,-32 -38,-52 -19,-29 -14,-33 -19,-70 -4,-21 -14,-57 -13,-77l3 0c-11,-34 -42,-63 -68,-85 -54,-46 -168,-76 -236,-74 -23,1 -40,12 -55,23 -18,12 -35,30 -44,33z"/>
   <path class="fil1" d="M504 2261l47 33c73,49 105,63 182,101 8,4 19,9 27,12 63,26 114,43 183,61 52,13 114,24 172,29 122,11 211,12 338,-11 13,-3 21,-4 34,-7 10,-1 23,-6 34,-7 -10,-63 -19,-128 -27,-193 -9,-62 -20,-134 -24,-196 -116,16 -233,39 -346,63 -129,29 -196,47 -319,88 -51,17 -103,35 -152,54 -34,13 -53,24 -58,-23 -8,-83 1,-212 9,-294l23 -182c-24,5 -30,17 -37,39 -31,105 -73,332 -86,433z"/>
   <path class="fil2" d="M1185 1018c-17,-20 26,-47 77,-28 13,5 31,16 39,23l31 28c37,36 88,55 87,99 0,21 -9,28 -18,41 -8,58 17,42 -25,108 -17,26 2,101 -36,104 -22,-38 -4,-72 -32,-87 -51,-26 -50,32 -191,36 -24,0 -29,-1 -51,7 -15,6 -31,14 -35,26 8,11 15,10 31,13 21,5 13,12 24,23 5,-7 25,-4 34,-6 13,-2 21,-8 34,-4 12,16 1,29 18,36 29,-5 3,-44 36,-50 0,49 -5,64 17,101 14,23 30,53 35,84 29,22 35,22 65,-1 112,-82 169,-182 167,-330 0,-32 -4,-61 -6,-92 -2,-18 5,-24 11,-37 5,-10 8,-27 15,-34 9,8 3,14 17,17 14,-7 14,-39 18,-57 6,-20 12,-39 19,-58 19,-50 40,-137 23,-193 -16,-54 -58,-24 -55,0 1,16 31,28 13,55 -8,12 -13,17 -24,18 -7,-21 -13,-79 -20,-101 -4,-9 -3,-8 -9,-12 -11,-4 -49,24 -54,31 -13,21 -1,94 -32,151 -8,14 -30,43 -50,42 -24,-21 0,-30 11,-44 8,-11 25,-41 14,-58 -11,-7 -24,-1 -37,-4 -13,-2 -12,-11 -20,-18 -22,-18 -63,22 -130,16 -39,-3 -71,-29 -65,-5 1,3 3,5 6,9 13,20 -15,44 -33,30 -32,-25 -25,-95 -92,-61 -39,19 -14,103 -20,144 -5,37 -17,64 5,91 42,50 105,58 163,20 56,-38 28,-38 25,-73z"/>
   <path class="fil3" d="M2088 2169c12,-8 38,-37 51,-50 60,-59 133,-160 175,-232 5,-10 12,-21 18,-32 18,-36 76,-147 78,-180 -8,-4 -17,-12 -26,-18 -10,-6 -17,-10 -27,-15 -20,-10 -39,-19 -61,-26 -40,-14 -103,-21 -149,-25 -45,-5 -298,-28 -323,-20 -5,17 51,130 62,152l202 446z"/>
   <path class="fil3" d="M1003 323c9,-3 26,-21 44,-33 15,-11 32,-22 55,-23 68,-2 182,28 236,74 26,22 57,51 68,85 12,6 25,30 33,44 10,16 20,31 30,49l41 76c5,10 7,19 17,24 25,-15 -1,-138 -7,-165 -21,-91 -56,-158 -113,-225 -26,-32 -92,-87 -135,-107 -96,-46 -194,-75 -318,-68 -52,3 -112,18 -158,34 -30,11 -125,43 -122,70 17,4 32,-5 51,1 4,21 -19,22 -36,32 -16,8 -31,19 -45,29 -17,12 -70,53 -73,74 15,7 31,-4 48,-10 19,-6 35,-11 54,-16 122,-31 232,-15 330,55z"/>
   <path class="fil3" d="M1441 1966c-4,8 -13,13 -23,15 -38,11 -111,-53 -141,-76 -3,-3 -6,-5 -9,-8 -10,-8 -5,-5 -8,-4 1,7 23,53 31,78 12,38 16,67 22,87 13,3 324,-34 371,-37 -4,-80 -21,-284 -37,-364l-18 -81c-2,-9 -3,-18 -9,-26 -4,86 -38,246 -76,329 -7,13 -13,32 -27,33 -1,-14 23,-93 28,-117 18,-90 36,-233 5,-322 -5,-16 -17,-37 -31,-40 -5,6 -14,34 -18,43 -22,49 -68,106 -104,144 -23,24 -97,79 -101,89 16,0 58,-15 87,-16 45,-1 42,15 46,55 3,24 16,70 0,85 -20,18 -68,3 -90,13 4,17 113,96 102,120z"/>
   <path class="fil1" d="M1825 2037l69 281c12,-8 23,-14 35,-22 6,-4 11,-8 17,-12l52 -38c6,-4 11,-8 17,-13 6,-5 11,-8 15,-13l-20 -45c-7,-16 -13,-31 -19,-46 -12,-31 -25,-61 -37,-91 -63,-153 -120,-309 -182,-459 -7,-18 -9,-30 -24,-41 -10,-7 -34,-18 -48,-9 -6,12 29,113 36,134 13,43 24,90 35,135 12,48 22,95 31,143 4,16 7,62 18,69 18,10 59,-5 73,13 -12,13 -52,9 -68,14z"/>
   <path class="fil3" d="M946 2055c10,22 -34,59 -79,18 -30,-27 -44,-37 -73,-69 -12,-13 -21,-24 -33,-37 -37,-45 -67,-123 -79,-134 -5,50 0,296 34,314 16,8 124,-17 149,-21 46,-8 105,-15 148,-26 28,-56 42,-85 64,-142 8,-22 11,-30 22,-46l-17 2c-14,9 -48,58 -59,77 -6,10 -9,23 -22,25 -2,-33 22,-62 29,-87 -4,-3 4,-3 -8,-1l-30 6c-14,3 -26,6 -40,8 -35,5 -51,-5 -62,-32 -8,-21 -16,-54 -19,-77 -5,-33 9,-52 39,-55 5,-7 3,-5 10,-11 -2,-7 -2,-5 -19,-14 -45,-24 -130,-91 -137,-94 1,85 31,159 63,225 26,50 52,87 87,129 8,10 29,29 32,42z"/>
   <path class="fil3" d="M1086 1411c-1,16 5,34 -2,48 -14,-6 -31,-43 -43,-33 -6,5 5,16 9,49 9,82 -55,136 76,236 14,10 25,17 38,27 12,9 26,23 47,19 4,-24 0,-28 10,-52 6,-15 15,-28 22,-40 39,-70 -9,-85 17,-93 -5,-31 -21,-61 -35,-84 -22,-37 -17,-52 -17,-101 -33,6 -7,45 -36,50 -17,-7 -6,-20 -18,-36 -13,-4 -21,2 -34,4 -9,2 -29,-1 -34,6z"/>
   <path class="fil3" d="M483 843c8,0 25,-6 31,-12 10,-9 5,-25 3,-39 -5,-56 -3,-118 7,-173 18,-89 38,-50 66,-121 25,-63 59,-110 115,-143 8,-4 10,-5 10,-14 -49,-10 -129,51 -150,70 -28,25 -85,78 -138,85 -44,6 -15,28 7,61 19,30 16,57 16,96 0,47 5,165 33,190z"/>
   <path class="fil3" d="M1665 1130c11,3 7,2 15,9 2,16 -32,141 -41,163 -16,38 -26,6 -32,40l120 -1 3 -16c-23,-7 -15,-19 -9,-38 4,-14 7,-35 14,-46 10,17 43,65 56,78 13,14 21,19 46,22 18,1 52,2 69,0 5,-12 8,-12 -3,-17 -23,-11 -25,-18 -43,-44 -7,-11 -35,-51 -37,-61 8,-9 21,-18 31,-26 18,-14 63,-54 82,-61 13,-5 11,-1 13,-17l-100 0c-19,0 -19,-4 -23,12l13 10c-2,13 -31,30 -47,42l-52 40c3,-19 10,-39 15,-57 15,-55 23,-11 28,-47l-114 0 -4 15z"/>
   <path class="fil2" d="M730 1040l31 9c15,41 16,35 39,65 6,8 11,16 24,12 8,-2 15,-10 24,-15 13,-7 19,-5 22,-21 5,-27 9,-39 25,-56 26,-26 57,-52 56,-109 -13,4 -11,11 -22,17 -12,-1 -24,-12 -26,-20 -6,-15 10,-14 11,-33 -13,-1 -31,12 -52,15 -39,5 -92,-17 -128,40 -26,41 -42,-8 -66,1 -27,10 -22,23 -14,37 13,20 47,54 76,58z"/>
   <path class="fil1" d="M1533 2074l63 378c6,-2 71,-21 87,-29 -12,-60 -21,-121 -33,-181 -12,-60 -24,-119 -36,-178l-81 10z"/>
   <path class="fil3" d="M1348 1184c-8,-22 -16,-2 -51,-28 -22,-15 -62,-86 -89,-63 -16,14 -24,24 -47,35 -35,16 -17,26 -42,41 -41,25 -110,-13 -141,-7 -26,4 -31,21 -44,38 -15,20 -21,22 -43,36 -26,15 15,28 41,23 37,-7 63,-22 130,-33 75,-13 150,-16 226,-19 29,-1 49,-1 60,-23z"/>
   <path class="fil3" d="M1966 1127c20,24 25,-13 -9,115 -8,31 -22,69 -27,100l103 0c5,-28 -5,-11 -11,-28 -2,-8 1,-16 3,-23 4,-12 5,-36 15,-43 38,0 45,-4 75,10l14 -53 -79 0c1,-9 4,-15 6,-23 7,-27 -6,-21 61,-21 39,0 26,11 40,15 7,-6 16,-50 17,-61l-205 0 -3 12z"/>
   <path class="fil3" d="M1470 2083c4,62 15,134 24,196 8,65 17,130 27,193 9,-4 28,-7 38,-10 13,-3 24,-7 37,-10l-63 -378 -63 9z"/>
   <path class="fil3" d="M2384 1292c-35,2 -58,21 -101,2 -88,-38 -35,-156 72,-136 7,1 16,5 21,8 9,6 6,11 19,13 8,-8 16,-44 18,-57 -58,-13 -111,-14 -165,9 -139,60 -132,250 112,209 22,-3 12,-1 24,-48z"/>
   <path class="fil4" d="M702 761c-3,-8 -1,-98 1,-113 8,-77 21,-170 59,-238 10,-17 16,-19 20,-42 -69,11 -110,98 -129,168 -12,42 -15,87 -16,134 -2,57 -44,24 -31,92 2,10 1,9 7,14 10,4 80,-8 89,-15z"/>
   <path class="fil1" d="M1680 2055c4,27 13,57 19,84 6,27 12,56 18,83 13,57 22,115 35,171l56 -26c7,-5 13,-6 19,-12l-69 -310 -78 10z"/>
   <path class="fil3" d="M1614 2064c12,59 24,118 36,178 12,60 21,121 33,181 11,-6 23,-9 35,-15l34 -15c-13,-56 -22,-114 -35,-171 -6,-27 -12,-56 -18,-83 -6,-27 -15,-57 -19,-84l-66 9z"/>
   <path class="fil4" d="M921 1403c-16,8 -9,32 -22,44 -38,-2 -76,-133 -86,-179 -4,-19 -3,-39 -27,-35 -20,4 -29,14 -37,30 -17,40 0,74 15,105 28,58 71,115 125,141 20,10 105,34 76,-16 -8,-14 -14,-30 -21,-47 -5,-13 -11,-38 -23,-43z"/>
   <path class="fil4" d="M1620 1550c6,8 7,17 9,26l18 81c16,80 33,284 37,364 10,-1 20,-2 31,-3 4,-1 11,-2 15,-3 9,-3 6,-1 11,-7 12,-18 -50,-336 -63,-394 -8,-36 -12,-101 -53,-102 -4,10 -3,25 -5,38z"/>
   <path class="fil3" d="M224 1971c2,9 23,34 29,42l68 82c8,11 26,31 38,37 9,-37 17,-78 26,-116 5,-20 9,-38 15,-58 5,-20 14,-38 18,-57 -56,-8 -62,5 -105,25 -28,14 -62,35 -89,45z"/>
   <path class="fil3" d="M1758 2045l69 310c13,-2 53,-29 67,-37l-69 -281 -67 8z"/>
   <path class="fil4" d="M682 1833c12,11 42,89 79,134 12,13 21,24 33,37 29,32 43,42 73,69 45,41 89,4 79,-18 -2,31 -64,-36 -69,-42l-46 -51c-5,-7 -10,-13 -15,-20 -18,-27 -33,-52 -50,-82 -15,-27 -30,-60 -45,-85 -35,-2 -37,27 -39,58z"/>
   <path class="fil4" d="M359 2132c2,6 4,7 9,12 5,5 8,8 13,12 8,9 15,18 25,23 12,-50 27,-104 42,-156 6,-22 17,-56 21,-77 7,-42 -23,-36 -51,-45 -4,19 -13,37 -18,57 -6,20 -10,38 -15,58 -9,38 -17,79 -26,116z"/>
   <path class="fil4" d="M764 1659c7,3 92,70 137,94 17,9 17,7 19,14 12,-5 24,-9 38,-12 13,-3 32,-3 43,-10 -3,-15 -30,-21 -56,-33 -46,-23 -100,-54 -138,-86 -8,-8 -17,-18 -27,-21 -15,10 -16,34 -16,54z"/>
   <path class="fil4" d="M1185 1018c9,-22 57,6 68,13 45,31 52,69 110,89 44,14 24,41 38,61 9,-13 18,-20 18,-41 1,-44 -50,-63 -87,-99l-31 -28c-8,-7 -26,-18 -39,-23 -51,-19 -94,8 -77,28z"/>
   <path class="fil4" d="M1030 1929c6,-6 17,-25 17,-34 -30,-7 -87,27 -118,4 -14,-10 -12,-36 -14,-57 -2,-19 -9,-45 -5,-64 -30,3 -44,22 -39,55 3,23 11,56 19,77 11,27 27,37 62,32 14,-2 26,-5 40,-8l30 -6c12,-2 4,-2 8,1z"/>
   <path class="fil4" d="M824 1126c-13,4 -18,-4 -24,-12 -23,-30 -24,-24 -39,-65l-31 -9c8,29 -8,39 -39,24 -9,-5 -11,-8 -19,-4 -6,23 48,78 59,86 13,11 28,25 52,15 13,-6 34,-25 41,-35z"/>
   <path class="fil4" d="M1082 1914l17 -2c-11,16 -14,24 -22,46 -22,57 -36,86 -64,142 56,-6 56,-17 87,-92 9,-23 47,-111 39,-136 -19,0 -52,32 -57,42z"/>
   <path class="fil4" d="M1260 1893c3,-1 -2,-4 8,4 3,3 6,5 9,8 30,23 103,87 141,76 10,-2 19,-7 23,-15 -14,-1 -30,-18 -48,-30 -26,-17 -129,-89 -153,-80 -3,11 17,35 20,37z"/>
   <path class="fil3" d="M1027 1296c8,32 85,12 99,9 24,-5 64,-14 86,-26 12,-6 6,0 9,-9 -14,-5 -82,3 -102,5 -16,2 -32,5 -47,8 -8,1 -15,3 -22,5 -12,3 -16,2 -23,8z"/>
   <path class="fil4" d="M698 891c28,12 59,-27 103,-40 19,-5 31,-2 47,-5 3,-20 -29,-44 -81,-12 -23,14 -37,29 -55,39 -9,6 -14,7 -14,18z"/>
   <path class="fil4" d="M1352 819c-4,-4 -26,-14 -34,-20 -11,-8 -21,-17 -33,-23 -33,-16 -65,1 -80,20 -25,30 37,-8 70,4 18,7 58,40 77,19z"/>
   <path class="fil3" d="M554 988c4,-3 4,-1 4,-9 0,-3 -3,-10 -4,-13 -16,-41 -16,-68 -22,-82 -11,-1 -30,5 -33,15 -4,15 21,58 29,70 6,9 14,25 26,19z"/>
   <path class="fil4" d="M712 825c-13,-5 -45,4 -58,10 -20,9 -32,35 -24,47 14,17 43,-19 67,-36 7,-6 16,-9 15,-21z"/>
   <path class="fil4" d="M970 1112c3,-17 -5,-19 -9,-33 -4,-17 2,-28 0,-39 -57,-16 -37,91 9,72z"/>
   <path class="fil4" d="M1300 750c5,8 3,3 18,12 7,4 14,8 20,13 9,5 36,22 42,4 12,-39 -69,-48 -80,-29z"/>
   <path class="fil3" d="M1160 2077c13,3 37,-2 46,-7 2,-12 -6,-61 -14,-67 -8,10 -10,27 -15,38 -4,10 -16,28 -17,36z"/>
   <path class="fil3" d="M556 861l46 -5c-1,-31 -2,-29 -28,-24 -27,4 -24,3 -18,29z"/>
   <path class="fil3" d="M1402 752l43 -3 1 -25c-9,0 -31,1 -39,3 -11,2 -12,9 -5,25z"/>
  </g>
 </g>
</svg>
